<mxfile host="app.diagrams.net" agent="Mozilla/5.0 (Windows NT 10.0; Win64; x64) AppleWebKit/537.36 (KHTML, like Gecko) Chrome/129.0.0.0 Safari/537.36" version="24.8.1">
  <diagram name="Страница — 1" id="kjTSDHA-J_qPaRx5PxwT">
    <mxGraphModel dx="1434" dy="772" grid="1" gridSize="10" guides="1" tooltips="1" connect="1" arrows="1" fold="1" page="1" pageScale="1" pageWidth="827" pageHeight="1169" math="0" shadow="0">
      <root>
        <mxCell id="0" />
        <mxCell id="1" parent="0" />
        <mxCell id="uAy5AUA6yF6CO0cKLSTH-4" style="edgeStyle=orthogonalEdgeStyle;rounded=0;orthogonalLoop=1;jettySize=auto;html=1;exitX=0.5;exitY=1;exitDx=0;exitDy=0;entryX=0.5;entryY=0;entryDx=0;entryDy=0;" edge="1" parent="1" source="uAy5AUA6yF6CO0cKLSTH-1" target="uAy5AUA6yF6CO0cKLSTH-2">
          <mxGeometry relative="1" as="geometry" />
        </mxCell>
        <mxCell id="uAy5AUA6yF6CO0cKLSTH-1" value="Start" style="ellipse;whiteSpace=wrap;html=1;fillColor=#d5e8d4;strokeColor=#82b366;" vertex="1" parent="1">
          <mxGeometry x="10" width="120" height="80" as="geometry" />
        </mxCell>
        <mxCell id="uAy5AUA6yF6CO0cKLSTH-6" value="" style="edgeStyle=orthogonalEdgeStyle;rounded=0;orthogonalLoop=1;jettySize=auto;html=1;" edge="1" parent="1" source="uAy5AUA6yF6CO0cKLSTH-2" target="uAy5AUA6yF6CO0cKLSTH-5">
          <mxGeometry relative="1" as="geometry" />
        </mxCell>
        <mxCell id="uAy5AUA6yF6CO0cKLSTH-2" value="int m, n" style="rounded=0;whiteSpace=wrap;html=1;" vertex="1" parent="1">
          <mxGeometry x="15" y="90" width="120" height="20" as="geometry" />
        </mxCell>
        <mxCell id="uAy5AUA6yF6CO0cKLSTH-8" value="" style="edgeStyle=orthogonalEdgeStyle;rounded=0;orthogonalLoop=1;jettySize=auto;html=1;" edge="1" parent="1" source="uAy5AUA6yF6CO0cKLSTH-5" target="uAy5AUA6yF6CO0cKLSTH-7">
          <mxGeometry relative="1" as="geometry" />
        </mxCell>
        <mxCell id="uAy5AUA6yF6CO0cKLSTH-5" value="Введіть значення m:&lt;br&gt;cin &amp;gt;&amp;gt; m" style="shape=parallelogram;perimeter=parallelogramPerimeter;whiteSpace=wrap;html=1;fixedSize=1;rounded=0;" vertex="1" parent="1">
          <mxGeometry y="130" width="150" height="60" as="geometry" />
        </mxCell>
        <mxCell id="uAy5AUA6yF6CO0cKLSTH-10" value="" style="edgeStyle=orthogonalEdgeStyle;rounded=0;orthogonalLoop=1;jettySize=auto;html=1;" edge="1" parent="1" source="uAy5AUA6yF6CO0cKLSTH-7" target="uAy5AUA6yF6CO0cKLSTH-9">
          <mxGeometry relative="1" as="geometry" />
        </mxCell>
        <mxCell id="uAy5AUA6yF6CO0cKLSTH-7" value="Введіть значення n:&lt;br&gt;cin &amp;gt;&amp;gt; n" style="shape=parallelogram;perimeter=parallelogramPerimeter;whiteSpace=wrap;html=1;fixedSize=1;rounded=0;" vertex="1" parent="1">
          <mxGeometry y="210" width="150" height="60" as="geometry" />
        </mxCell>
        <mxCell id="uAy5AUA6yF6CO0cKLSTH-12" value="" style="edgeStyle=orthogonalEdgeStyle;rounded=0;orthogonalLoop=1;jettySize=auto;html=1;" edge="1" parent="1" source="uAy5AUA6yF6CO0cKLSTH-9" target="uAy5AUA6yF6CO0cKLSTH-11">
          <mxGeometry relative="1" as="geometry" />
        </mxCell>
        <mxCell id="uAy5AUA6yF6CO0cKLSTH-9" value="int first = m-(++n)" style="whiteSpace=wrap;html=1;rounded=0;" vertex="1" parent="1">
          <mxGeometry x="15" y="290" width="120" height="60" as="geometry" />
        </mxCell>
        <mxCell id="uAy5AUA6yF6CO0cKLSTH-14" value="" style="edgeStyle=orthogonalEdgeStyle;rounded=0;orthogonalLoop=1;jettySize=auto;html=1;entryX=0;entryY=0.5;entryDx=0;entryDy=0;" edge="1" parent="1" source="uAy5AUA6yF6CO0cKLSTH-11" target="uAy5AUA6yF6CO0cKLSTH-13">
          <mxGeometry relative="1" as="geometry">
            <Array as="points">
              <mxPoint x="180" y="400" />
              <mxPoint x="180" y="40" />
            </Array>
          </mxGeometry>
        </mxCell>
        <mxCell id="uAy5AUA6yF6CO0cKLSTH-11" value="Перший результат: first" style="shape=parallelogram;perimeter=parallelogramPerimeter;whiteSpace=wrap;html=1;fixedSize=1;rounded=0;" vertex="1" parent="1">
          <mxGeometry y="370" width="150" height="60" as="geometry" />
        </mxCell>
        <mxCell id="uAy5AUA6yF6CO0cKLSTH-25" value="" style="edgeStyle=orthogonalEdgeStyle;rounded=0;orthogonalLoop=1;jettySize=auto;html=1;" edge="1" parent="1" source="uAy5AUA6yF6CO0cKLSTH-13" target="uAy5AUA6yF6CO0cKLSTH-15">
          <mxGeometry relative="1" as="geometry" />
        </mxCell>
        <mxCell id="uAy5AUA6yF6CO0cKLSTH-13" value="bool second =&lt;br&gt;(++m)&amp;gt;(--n)" style="whiteSpace=wrap;html=1;rounded=0;" vertex="1" parent="1">
          <mxGeometry x="225" y="10" width="120" height="60" as="geometry" />
        </mxCell>
        <mxCell id="uAy5AUA6yF6CO0cKLSTH-18" value="" style="edgeStyle=orthogonalEdgeStyle;rounded=0;orthogonalLoop=1;jettySize=auto;html=1;" edge="1" parent="1" source="uAy5AUA6yF6CO0cKLSTH-15" target="uAy5AUA6yF6CO0cKLSTH-17">
          <mxGeometry relative="1" as="geometry" />
        </mxCell>
        <mxCell id="uAy5AUA6yF6CO0cKLSTH-15" value="Другий результат: second" style="shape=parallelogram;perimeter=parallelogramPerimeter;whiteSpace=wrap;html=1;fixedSize=1;rounded=0;" vertex="1" parent="1">
          <mxGeometry x="210" y="90" width="150" height="60" as="geometry" />
        </mxCell>
        <mxCell id="uAy5AUA6yF6CO0cKLSTH-20" value="" style="edgeStyle=orthogonalEdgeStyle;rounded=0;orthogonalLoop=1;jettySize=auto;html=1;" edge="1" parent="1" source="uAy5AUA6yF6CO0cKLSTH-17" target="uAy5AUA6yF6CO0cKLSTH-19">
          <mxGeometry relative="1" as="geometry" />
        </mxCell>
        <mxCell id="uAy5AUA6yF6CO0cKLSTH-17" value="bool third =&lt;br&gt;(--n)&amp;lt;(++m)" style="whiteSpace=wrap;html=1;rounded=0;" vertex="1" parent="1">
          <mxGeometry x="225" y="180" width="120" height="60" as="geometry" />
        </mxCell>
        <mxCell id="uAy5AUA6yF6CO0cKLSTH-22" value="" style="edgeStyle=orthogonalEdgeStyle;rounded=0;orthogonalLoop=1;jettySize=auto;html=1;" edge="1" parent="1" source="uAy5AUA6yF6CO0cKLSTH-19" target="uAy5AUA6yF6CO0cKLSTH-21">
          <mxGeometry relative="1" as="geometry" />
        </mxCell>
        <mxCell id="uAy5AUA6yF6CO0cKLSTH-19" value="Третій результат: third" style="shape=parallelogram;perimeter=parallelogramPerimeter;whiteSpace=wrap;html=1;fixedSize=1;rounded=0;" vertex="1" parent="1">
          <mxGeometry x="210" y="270" width="150" height="60" as="geometry" />
        </mxCell>
        <mxCell id="uAy5AUA6yF6CO0cKLSTH-21" value="End" style="ellipse;whiteSpace=wrap;html=1;fillColor=#f8cecc;strokeColor=#b85450;" vertex="1" parent="1">
          <mxGeometry x="225" y="360" width="120" height="80" as="geometry" />
        </mxCell>
      </root>
    </mxGraphModel>
  </diagram>
</mxfile>
